<svg height="512pt" viewBox="0 0 512 512.0003" width="512pt" xmlns="http://www.w3.org/2000/svg"><path d="m265.75 176.988281h-4.992188l7.183594-18.820312c1.96875-5.15625-.621094-10.9375-5.777344-12.90625-5.160156-1.96875-10.9375.617187-12.910156 5.777343l-12.355468 32.386719c-1.171876 3.070313-.757813 6.527344 1.105468 9.234375 1.867188 2.710938 4.945313 4.328125 8.238282 4.328125h19.507812c5.523438 0 10-4.476562 10-10 0-5.523437-4.476562-10-10-10zm0 0"/><path d="m511.949219 501.203125c-.269531-3.382813-7.054688-83.351563-44.253907-129.125-35.046874-43.121094-84.625-55.628906-114.039062-59.160156l-21.550781-34.117188c.984375-1.46875 1.800781-3.113281 2.925781-4.476562 1.089844-1.328125 2.488281-2.441407 3.769531-3.574219 6.894531-6.097656 17.3125-15.3125 17.3125-37.144531v-42.484375h5.003907c10.492187 0 20.351562-4.085938 27.75-11.496094 7.414062-7.417969 11.5-17.269531 11.5-27.75 0-17.59375-11.632813-32.519531-27.613282-37.488281 2.480469-8.890625 4.367188-19.171875 4.519532-30.171875.03125-.484375.046874-.953125.046874-1.421875 0-14.792969-8.15625-39.089844-26.382812-60.023438-17.703125-20.332031-45.949219-27.886719-71.96875-19.242187-6.9375 2.308594-14.890625 3.527344-23.003906 3.527344-7.910156 0-15.695313-1.164063-22.511719-3.371094-24.660156-7.96875-51.042969-1.683594-68.859375 16.410156-16.800781 17.058594-29.453125 39.171875-32.257812 56.363281-.367188 2.074219-.554688 4.222657-.554688 6.335938 0 11.703125 2.320312 22.757812 5.40625 32.289062-14.925781 5.566407-25.601562 19.976563-25.601562 36.789063 0 10.496094 4.085937 20.355468 11.492187 27.746094 7.402344 7.417968 17.261719 11.503906 27.753906 11.503906h2.148438v42.484375c0 21.820312 10.414062 31.039062 17.304687 37.136719 1.46875 1.296874 2.734375 2.421874 3.707032 3.496093.042968.042969.421874.46875 1.175781 1.722657.582031.96875 1.199219 1.910156 1.824219 2.84375l-21.613282 34.207031c-12.933594 1.800781-30.796875 5.59375-49.609375 13.609375-5.082031 2.164062-7.445312 8.039062-5.28125 13.117187 2.164063 5.082031 8.035157 7.449219 13.117188 5.28125 15.542969-6.617187 30.402343-10.03125 41.734375-11.789062l33.390625 72.082031 10.292969 86.6875h-97.023438v-32.347656c0-5.523438-4.476562-10-10-10s-10 4.476562-10 10v32.347656h-60.777344c2.679688-19.625 10.332032-62.027344 29.195313-93.730469 2.824219-4.75 1.265625-10.882812-3.480469-13.707031s-10.882812-1.265625-13.707031 3.480469c-27.574219 46.34375-32.980469 110.453125-33.199219 113.160156-.222656 2.78125.726562 5.53125 2.621094 7.582031 1.894531 2.050782 4.554687 3.214844 7.347656 3.214844h491.984375c2.789063 0 5.453125-1.164062 7.347656-3.214844 1.890625-2.050781 2.839844-4.800781 2.617188-7.582031zm-276.867188-191.824219c15.3125 1.175782 30.851563 1.03125 46.121094-.667968l-26.574219 31.476562-26.660156-31.472656c2.367188.265625 4.738281.488281 7.113281.664062zm-44.785156-14.191406 50.207031 59.269531-15.945312 13.304688-22.488282 18.765625-29.394531-63.453125zm28.867187 196.8125-10.121093-85.242188 35.601562-29.710937v114.953125zm87.875-105.492188-19.183593-16.0625-19.089844-15.984374 50.046875-59.257813 17.605469 27.871094zm-6.839843-151.726562c-.003907 2.929688-.015625 4.414062-.027344 5.164062-.890625 3.136719-2.835937 5.347657-6.0625 6.914063-2.347656 1.140625-5.1875 1.796875-8.171875 1.996094-4.695312.308593-9.753906-.539063-13.867188-2.519531-9.761718-4.695313-21.316406-4.699219-31.164062-.234376-7.339844 3.324219-17.40625 3.574219-23.414062.570313-2.589844-1.292969-4.300782-3.066406-5.285157-5.488281-.167969-.417969-.324219-.851563-.449219-1.308594-.015624-.742188-.039062-2.34375-.042968-5.742188 0-1.085937-.03125-2.167968-.09375-3.242187-.925782-16.125-8.617188-30.9375-21.417969-41.03125l-18.152344-14.3125c-.949219-5.128906-1.425781-10.351563-1.425781-15.570313v-18.859374c0-.007813 0-.011719 0-.019532.003906-8.835937 3.050781-23.21875 7.957031-37.539062 5.496094-16.042969 10.75-24.582032 12.773438-26.191406 3.5-2.796876 8.792969-2.929688 12.207031.105468 13.820312 12.191406 28.375 16.382813 38.632812 17.703125-6.941406 2.738281-13.921874 4.511719-20.339843 4.511719-5.519531 0-9.996094 4.476562-9.996094 9.996094 0 5.523437 4.476563 10 9.996094 10 15.210937 0 32.792969-6.261719 52.25-18.613282 12.296875-7.808593 21.359375-15.570312 23.65625-17.589843 3.894531-2.625 7.78125-7.445313 12.480469-8.453125 5.691406-1.21875 9.15625 2.730468 11.90625 7.113281 7.78125 12.414063 19.175781 40.800781 19.175781 57.992187v19.847657c0 3.257812-.1875 6.519531-.554688 9.757812-.1875 1.667969-.429687 3.328125-.714843 4.984375-.183594 1.070313-.226563 1.773438-.894532 2.582032l-16.519531 12.472656c-14.035156 10.597656-22.421875 27.421875-22.441406 45.003906zm80.167969-82.90625c0 5.136719-2.003907 9.96875-5.648438 13.613281-3.625 3.632813-8.457031 5.636719-13.601562 5.636719h-.375c.066406-.628906.121093-1.257812.175781-1.886719.011719-.160156.03125-.316406.042969-.476562.242187-2.917969.367187-5.847657.367187-8.789063v-17.191406c1.140625-2.078125 2.820313-5.328125 4.671875-9.527344 8.257812 2.164063 14.367188 9.691406 14.367188 18.621094zm-228.566407-69.84375c.046875-.773438.136719-1.542969.265625-2.304688 1.769532-10.957031 10.734375-29.308593 26.777344-45.597656 8.875-9.015625 20.835938-13.828125 33.269531-13.828125 5.042969 0 10.160157.789063 15.183594 2.414063 8.78125 2.839844 18.691406 4.339844 28.667969 4.339844 10.230468 0 20.363281-1.574219 29.3125-4.546876 18.335937-6.09375 38.1875-.835937 50.578125 13.394532 15.75 18.09375 21.46875 37.953125 21.46875 46.890625-.015625.296875-.03125.59375-.042969.890625-.082031 7.695312-1.230469 15.050781-2.84375 21.667968-1.46875-4.402343-2.875-8.101562-3.875-10.601562-3.46875-8.6875-9.925781-23.023438-17.527344-31.117188-8.152344-8.675781-21.527344-11.214843-32.40625-6.511718-3.035156 1.3125-5.855468 3.167968-8.332031 5.355468-17.320313 15.285157-35.675781 13.238282-36.371094 13.152344-.914062-.128906-1.84375-.128906-2.761719 0-.1875.027344-18.953124 2.152344-36.289062-13.082031-.007812-.007813-.015625-.015625-.023438-.023437-.082031-.074219-.164062-.148438-.246093-.21875-10.667969-9.265626-26.53125-9.507813-37.722657-.578126-5.039062 4.035157-8.390624 10.289063-11.230468 15.957032-3.121094 6.222656-5.703125 12.714844-7.96875 19.292968-1.3125 3.804688-2.507813 7.652344-3.585938 11.53125-2.476562-7.71875-4.316406-16.542968-4.316406-25.714843 0-.226563.003906-.457031.019531-.761719zm-.964843 89.09375c-5.148438 0-9.976563-2.003906-13.617188-5.648438-3.632812-3.625-5.632812-8.457031-5.632812-13.601562 0-8.484375 5.546874-15.722656 13.203124-18.273438 2.300782 4.613282 4.40625 8.195313 5.832032 10.472657v15.90625c0 2.769531.113281 5.53125.328125 8.28125 0 .035156.003906.070312.003906.101562.070313.851563.148437 1.703125.238281 2.550781.003906.070313.011719.140626.015625.210938zm22.144531 62.480469v-31.859375l4.839843 3.816406c8.816407 6.953125 13.882813 17.375 13.894532 28.59375.007812 6.992188.070312 8.042969.296875 9.121094.015625.085937.035156.167968.054687.257812.164063.746094.363282 1.472656.574219 2.191406 2.445313 8.351563 7.90625 14.839844 15.917969 18.839844 13.160156 6.578125 29.878906 4.613282 40.613281-.253906.011719-.003906.019531-.007812.027344-.011719 4.617187-2.078125 9.789062-2.0625 14.195312.058594 11.953125 5.753906 27.414063 6.335937 39.449219.492187 8.898438-4.316406 14.953125-11.890624 17.035156-21.292968.273438-1.199219.3125-1.382813.320313-8.75.011719-10.648438 4.777343-20.867188 12.839843-27.742188.992188-.84375 2.039063-1.617187 3.074219-2.402344v28.945313c0 12.820313-4.660156 16.945313-10.5625 22.167969-10.011719 8.863281-14.910156 20.878906-27.238281 27.480468-12.992188 6.960938-29.171875 6.816407-43.550781 6.84375-14.328125.03125-30.558594.164063-43.566407-6.625-12.585937-6.570312-17.507812-18.726562-27.65625-27.707031-5.898437-5.222656-10.558593-9.347656-10.558593-22.164062zm91.664062 143.492187 35.402344 29.644532-4.804687 39.800781-5.488282 45.457031h-25.109375zm171.347657 114.902344v-32.347656c0-5.523438-4.476563-10-10-10-5.519532 0-10 4.476562-10 10v32.347656h-106.089844l5.214844-43.214844 5.25-43.464844 32.9375-71.121093.507812-1.089844c23.492188 3.238281 68.019531 14.25 98.359375 51.582031 25.75 31.683594 35.472656 84.65625 38.578125 107.308594zm0 0"/><path d="m63.039062 361.996094c1.578126 3.851562 5.550782 6.367187 9.710938 6.167968 4.066406-.199218 7.675781-2.925781 8.988281-6.777343 1.324219-3.894531.058594-8.332031-3.121093-10.941407-3.355469-2.75-8.28125-2.996093-11.898438-.589843-3.917969 2.609375-5.488281 7.800781-3.679688 12.140625zm0 0"/></svg>